# xmcd CD database file
#
# Track frame offsets:
#	150
#	29213
#	51651
#	70553
#	87185
#	106917
#	132648
#	149621
#	168437
#	187369
#	209574
#	230675
#	248172
#	268520
#	289284
#	309238
#	331749
#
# Disc length: 4622 seconds
#
# Revision: 0
# Processed by: cddbd v1.5.2PL0 Copyright (c) Steve Scherf et al.
# Submitted via: CDex 1.70beta2
#
DISCID=12120c11
DTITLE=Coxilha Nativista - 29 Edição
DYEAR=2009
DGENRE=Country
TTITLE0=O Meu Silencio Tem Voz
TTITLE1=Sem Chão Pra Pisar
TTITLE2=Sangue
TTITLE3=O grito dos Sentinelas
TTITLE4=Reliquias Missioneiras
TTITLE5=Depoiis de Leguas Tranqueadas
TTITLE6=Pescoceiro
TTITLE7=Identidade e Raiz
TTITLE8=Aguas do Tempo
TTITLE9=Hace Tiempo
TTITLE10=De Homens e Tropas
TTITLE11=Pra Parceriar uma Millonga
TTITLE12=A Solidao
TTITLE13=Olhando a Vida do Rio
TTITLE14=Mateando Só
TTITLE15=Coxilha Piá - Milonga da Constancio Soledad
TTITLE16=Coxilha Piá - Carreira de Campo
EXTD=YEAR: 2009
EXTT0=
EXTT1=
EXTT2=
EXTT3=
EXTT4=
EXTT5=
EXTT6=
EXTT7=
EXTT8=
EXTT9=
EXTT10=
EXTT11=
EXTT12=
EXTT13=
EXTT14=
EXTT15=
EXTT16=
PLAYORDER=
